<?xml version="1.0" standalone="no"?>
<!DOCTYPE svg PUBLIC "-//W3C//DTD SVG 20010904//EN"
 "http://www.w3.org/TR/2001/REC-SVG-20010904/DTD/svg10.dtd">
<svg version="1.0" xmlns="http://www.w3.org/2000/svg"
 width="1280.000000pt" height="640.000000pt" viewBox="0 0 1280.000000 640.000000"
 preserveAspectRatio="xMidYMid meet">
<metadata>
Created by potrace 1.15, written by Peter Selinger 2001-2017
</metadata>
<g transform="translate(0.000000,640.000000) scale(0.100000,-0.100000)"
fill="#000000" stroke="none">
<path d="M572 6195 c-13 -10 -23 -30 -27 -58 -3 -23 -30 -240 -60 -482 -57
-465 -157 -1256 -255 -2020 -32 -253 -98 -763 -145 -1134 -48 -370 -83 -677
-78 -682 4 -4 204 -93 443 -197 239 -104 737 -321 1105 -482 1204 -525 1959
-852 2104 -911 l94 -39 116 5 c64 3 334 10 601 15 1308 27 2982 68 3654 91
l318 10 362 110 c347 106 1196 361 1686 508 129 38 453 135 720 215 702 209
1141 340 1335 397 160 47 172 52 208 91 42 46 56 83 38 107 -15 21 -7 1 -117
296 -210 565 -1229 3204 -1242 3217 -4 4 -168 -53 -363 -128 -1601 -615 -2899
-1104 -3184 -1199 l-70 -24 -1660 -5 c-1485 -4 -2058 -12 -2252 -31 -38 -4
-70 -13 -83 -25 -32 -28 -75 -10 -135 54 -81 89 -440 364 -1715 1320 -1006
755 -1281 959 -1305 972 -38 21 -71 24 -93 9z m73 -54 c2 -4 -40 -320 -95
-702 -316 -2231 -476 -3482 -457 -3561 7 -26 127 -82 1235 -574 182 -81 331
-149 329 -150 -3 -3 -473 200 -1297 562 -299 131 -305 134 -303 161 2 29 59
475 193 1523 198 1546 340 2676 340 2716 0 17 3 33 6 36 6 7 43 -2 49 -11z
m665 -491 c1235 -920 2206 -1657 2308 -1753 l32 -31 0 -255 c0 -246 19 -1206
40 -1971 26 -1011 33 -1311 28 -1316 -17 -17 -1096 452 -3113 1354 -253 113
-462 207 -464 209 -26 21 181 1621 484 3746 36 251 65 462 65 468 0 8 4 8 13
2 6 -6 280 -209 607 -453z m10143 -567 c25 -65 154 -399 287 -743 349 -901
723 -1874 866 -2254 93 -246 121 -332 112 -338 -31 -19 -682 -224 -1453 -458
-822 -249 -785 -237 -1600 -480 -132 -39 -321 -96 -420 -125 -99 -30 -272 -81
-385 -114 -113 -33 -244 -76 -290 -95 -47 -19 -89 -32 -94 -29 -5 3 -6 36 -2
74 4 51 0 101 -19 201 -60 327 -234 1174 -476 2313 -93 440 -169 803 -169 806
0 3 26 16 58 27 541 193 1836 681 3232 1218 162 62 298 114 301 114 3 0 27
-53 52 -117z m-3693 -1237 c0 -2 18 -89 40 -192 87 -402 402 -1908 475 -2263
128 -628 155 -777 155 -873 l0 -86 -72 -6 c-40 -3 -532 -17 -1093 -31 -561
-14 -1175 -30 -1365 -35 -639 -19 -1821 -50 -1873 -50 l-52 0 6 122 c15 310
-24 1484 -103 3121 -7 162 -8 251 -2 257 10 10 428 28 764 33 283 4 3120 7
3120 3z m-3971 -66 l29 0 6 -92 c8 -111 30 -587 51 -1073 8 -192 17 -404 20
-470 28 -594 51 -1577 40 -1727 l-7 -108 -77 0 -78 0 -7 212 c-7 220 -15 556
-41 1573 -8 325 -18 844 -22 1154 l-6 563 31 -16 c17 -9 44 -16 61 -16z m8939
-2102 c-14 -18 -31 -35 -39 -40 -8 -4 -180 -57 -384 -117 -622 -184 -1012
-301 -2300 -686 -973 -291 -1469 -441 -1517 -460 -55 -21 -692 -40 -3553 -105
-484 -10 -949 -21 -1033 -24 -147 -4 -155 -3 -205 20 -29 14 -43 22 -32 19 93
-29 110 -29 962 -7 890 24 2742 73 3438 93 l400 11 105 43 c58 23 260 89 450
145 598 176 1595 474 2275 680 778 235 1382 426 1425 451 29 17 32 9 8 -23z
m-11018 -543 c14 -8 21 -14 15 -14 -5 0 -21 6 -35 14 -14 8 -20 14 -15 14 6 0
21 -6 35 -14z m90 -40 c14 -8 21 -14 15 -14 -5 0 -21 6 -35 14 -14 8 -20 14
-15 14 6 0 21 -6 35 -14z m80 -35 c8 -5 11 -10 5 -10 -5 0 -17 5 -25 10 -8 5
-10 10 -5 10 6 0 17 -5 25 -10z"/>
<path d="M5625 3784 c-453 -61 -832 -247 -1130 -555 -223 -230 -354 -487 -407
-794 -26 -152 -21 -386 11 -533 112 -511 476 -952 995 -1207 309 -151 631
-225 971 -225 907 2 1649 538 1817 1313 18 85 22 134 22 287 0 199 -16 307
-70 470 -29 87 -111 263 -157 335 -102 164 -291 371 -442 486 -293 224 -663
375 -1033 423 -150 19 -436 20 -577 0z m535 -49 c165 -20 287 -46 430 -94 656
-220 1115 -701 1241 -1301 31 -149 31 -392 0 -537 -83 -395 -308 -718 -666
-958 -684 -459 -1661 -425 -2351 81 -352 258 -580 603 -665 1004 -29 138 -32
390 -6 523 137 689 748 1197 1547 1286 123 14 337 12 470 -4z"/>
<path d="M5707 3730 c-642 -68 -1184 -422 -1426 -931 -99 -208 -134 -363 -135
-594 0 -127 5 -183 22 -273 97 -484 431 -908 914 -1157 440 -227 918 -296
1398 -199 362 73 672 236 921 483 222 223 348 450 411 744 28 133 30 376 4
517 -129 706 -767 1269 -1581 1395 -123 19 -410 27 -528 15z m507 -66 c355
-49 710 -202 981 -424 113 -92 257 -250 334 -365 125 -186 201 -374 237 -585
22 -129 15 -399 -15 -515 -76 -304 -239 -566 -476 -764 -336 -280 -741 -421
-1210 -421 -335 0 -627 67 -915 208 -504 249 -853 689 -935 1180 -24 141 -16
399 15 522 65 262 188 478 380 670 399 400 982 579 1604 494z"/>
<path d="M5880 2679 c-152 -18 -284 -83 -381 -187 -195 -208 -184 -498 26
-708 126 -126 297 -193 491 -194 291 0 541 180 593 428 66 316 -195 619 -570
662 -46 5 -86 9 -89 9 -3 -1 -34 -5 -70 -10z m295 -83 c209 -71 353 -227 385
-414 36 -218 -104 -425 -347 -509 -68 -24 -93 -27 -198 -27 -87 0 -136 5 -179
18 -278 84 -458 325 -417 557 32 187 177 334 383 389 107 29 264 23 373 -14z"/>
<path d="M5889 2407 c-138 -39 -219 -137 -219 -265 0 -185 212 -328 412 -277
283 72 310 399 42 522 -65 29 -169 38 -235 20z m230 -80 c236 -117 151 -417
-119 -417 -84 0 -145 25 -206 84 -72 70 -91 145 -58 224 40 96 155 158 274
145 25 -2 74 -19 109 -36z"/>
</g>
</svg>
